/* XPM */
static char * close_inactive_xpm[] = {
"40 24 3 1",
" 	c None",
".	c #282828",
"+	c #FFFFFF",
"........................................",
"........................................",
"........................................",
"........................................",
"........................................",
"........................................",
"........................................",
"...............++......++...............",
"...............+++....+++...............",
"................+++..+++................",
".................++++++.................",
"..................++++..................",
"..................++++..................",
".................++++++.................",
"................+++..+++................",
"...............+++....+++...............",
"...............++......++...............",
"........................................",
"........................................",
"........................................",
"........................................",
"........................................",
"........................................",
"........................................"};
